<mxfile host="app.diagrams.net" modified="2023-05-08T18:00:39.150Z" agent="Mozilla/5.0 (Windows NT 10.0; Win64; x64) AppleWebKit/537.36 (KHTML, like Gecko) Chrome/112.0.0.0 Safari/537.36" version="21.2.9" etag="ee0shAM2VRqu1vP0sefL" type="github">
  <diagram name="Page-1" id="B7d26OwPGDbPtEmtcOIW">
    <mxGraphModel>
      <root>
        <mxCell id="0" />
        <mxCell id="1" parent="0" />
      </root>
    </mxGraphModel>
  </diagram>
</mxfile>
